<?xml version="1.0" encoding="UTF-8"?>
<svg xmlns="http://www.w3.org/2000/svg" version="1.1" viewBox="0 0 360 360">
  <defs>
    <style>
      .cls-1 {
        fill: #ffe400;
      }

      .cls-1, .cls-2, .cls-3, .cls-4, .cls-5 {
        stroke-width: 0px;
      }

      .cls-2 {
        fill: #000;
      }

      .cls-3 {
        fill: #d62727;
      }

      .cls-4 {
        fill: #05f;
      }

      .cls-5 {
        fill: #55c49a;
      }
    </style>
  </defs>
  <g id="Default">
    <polygon class="cls-2" points="281.34 231.56 276.8 236.09 276.8 257.44 271.19 263.05 234.1 263.05 234.1 311.91 203.38 311.91 203.38 213 186.28 213 186.28 200.14 173.64 200.14 173.64 159.84 191.62 159.84 191.62 178.79 242.38 178.79 242.38 159.84 229.63 159.84 229.63 107.87 257.09 107.87 257.09 117.35 265.69 117.35 265.69 127.05 272.01 127.05 272.01 139.36 280.62 139.36 280.62 157.44 272.17 165.88 272.17 171.93 294.97 194.72 294.97 205.26 276.04 205.26 276.04 217.03 281.34 222.32 281.34 225.42 257.85 225.42 257.85 229.88 281.34 229.88 281.34 231.56"/>
    <rect class="cls-2" x="173.99" y="121.33" width="36.92" height="8.63"/>
  </g>
  <g id="Layer_01" data-name="Layer 01">
    <polygon class="cls-3" points="157.95 244.43 125.27 244.43 125.27 233.97 112.09 233.97 112.09 222.43 98.48 222.43 98.48 211.21 85.18 211.21 85.18 198.79 65.03 198.79 65.03 173.19 85.18 173.19 85.18 161.2 65.03 161.2 65.03 108.48 85.29 108.48 85.29 96.61 110.35 96.61 98.48 108.48 98.48 199.11 112.66 199.11 112.66 212.95 144.01 212.95 144.01 227 173.64 227 173.64 293.89 157.95 293.89 157.95 244.43"/>
  </g>
  <g id="Layer_03" data-name="Layer 03">
    <polygon class="cls-4" points="173.6 226.57 173.6 212.95 154.97 212.95 155.08 159.84 173.64 159.84 173.64 200.14 186.28 200.14 186.28 213 203.38 213 203.38 276.89 186.28 276.89 186.28 226.57 173.6 226.57"/>
    <rect class="cls-4" x="191.62" y="159.84" width="50.76" height="18.95"/>
    <polygon class="cls-4" points="192.35 95.94 192.35 74.12 251.49 74.12 284.37 107 289.06 107 289.06 126.8 281.65 126.8 281.65 116.24 273.54 116.24 273.54 106.81 267.54 106.81 267.54 95.94 192.35 95.94"/>
  </g>
  <g id="Layer_04" data-name="Layer 04">
    <rect class="cls-5" x="155.08" y="140.93" width="55.83" height="18.9"/>
    <polygon class="cls-5" points="139.85 115.42 139.85 185.76 155.03 185.76 155 199.18 125.23 199.11 125.23 185.76 112.66 185.76 112.66 108.52 121.45 108.52 155.85 74.12 192.35 74.12 192.36 107.87 174.78 107.87 174.78 95.94 155.02 95.94 139.85 111.11 139.85 115.42"/>
  </g>
  <g id="Layer_07" data-name="Layer 07">
    <polygon class="cls-1" points="144.7 62.25 110.35 96.61 85.29 96.61 96.53 85.37 112.07 85.37 112.07 63.49 127.46 48.09 200.92 48.09 211.05 58.21 211.05 62.25 144.7 62.25"/>
    <polygon class="cls-1" points="229.63 159.84 210.91 159.84 210.91 121.33 173.99 121.33 173.99 140.93 155.08 140.93 155.08 107.87 229.63 107.87 229.63 159.84"/>
  </g>
</svg>